# xmcd
#
# Track frame offsets: 
#        150
#        23380
#        42891
#        65799
#        96410
#        114941
#        137846
#        160687
#        180401
#        202118
#        220471
#        241511
#
# Disc length: 3519 seconds
#
# Revision: 1
# Processed by: cddbd v1.5.2PL0 Copyright (c) Steve Scherf et al.
# Submitted via: ExactAudioCopy v0.95b4
#
DISCID=9f0dbd0c
DTITLE=Charlie Byrd - For Louis
DYEAR=1999
DGENRE=Guitar
TTITLE0=Petite Fleur
TTITLE1=Remembering Louis Armstrong
TTITLE2=A Kiss To Build A Dream On
TTITLE3=Autumn In New York
TTITLE4=Hello Dolly
TTITLE5=Tin Roof Blues
TTITLE6=Soft Light And Sweet Music
TTITLE7=A Child Is Born
TTITLE8=Struttin' With Some Barbecue
TTITLE9=Indian Summer
TTITLE10=Rosetta
TTITLE11=What A Wonderful World
EXTD=Charlie Byrd g - Robert Redd p - Dennis Irwin b - Chuck Redd dr - Joe
EXTD=Wilder tp - Steve Wilson sax;
EXTT0=
EXTT1=
EXTT2=
EXTT3=
EXTT4=
EXTT5=
EXTT6=
EXTT7=
EXTT8=
EXTT9=
EXTT10=
EXTT11=
PLAYORDER=
